<?xml version="1.0" standalone="no"?>
<!DOCTYPE svg PUBLIC "-//W3C//DTD SVG 20010904//EN"
 "http://www.w3.org/TR/2001/REC-SVG-20010904/DTD/svg10.dtd">
<svg version="1.0" xmlns="http://www.w3.org/2000/svg"
 width="1679.000000pt" height="1679.000000pt" viewBox="0 0 1679.000000 1679.000000"
 preserveAspectRatio="xMidYMid meet">
<metadata>
Created by potrace 1.11, written by Peter Selinger 2001-2013
</metadata>
<g transform="translate(0.000000,1679.000000) scale(0.100000,-0.100000)"
fill="#000000" stroke="none">
<path d="M11354 16669 c-58 -62 -222 -193 -339 -271 -250 -168 -513 -272 -835
-333 -14 -3 -36 -7 -50 -9 -31 -6 -77 -13 -155 -21 -33 -4 -75 -9 -94 -11
-148 -16 -640 -19 -3422 -16 l-3156 3 -173 -433 c-95 -238 -178 -446 -185
-463 -8 -16 -70 -174 -140 -350 -70 -176 -133 -334 -141 -352 -8 -17 -14 -34
-14 -37 0 -3 -11 -30 -25 -60 -14 -30 -25 -60 -25 -66 0 -7 -6 -24 -14 -38 -8
-15 -35 -78 -59 -140 l-45 -113 61 -32 c34 -17 67 -34 72 -36 14 -5 145 -92
175 -116 71 -57 205 -196 254 -265 141 -195 232 -439 252 -670 9 -104 9 -9565
0 -9670 -40 -473 -325 -883 -758 -1094 -32 -16 -56 -31 -54 -35 2 -3 41 -96
86 -206 44 -110 87 -213 95 -230 7 -16 29 -70 49 -120 20 -49 41 -99 45 -110
5 -11 16 -36 24 -55 8 -19 35 -84 60 -145 60 -148 206 -503 222 -540 7 -16 50
-120 95 -230 45 -110 90 -218 99 -240 10 -22 24 -55 31 -73 l12 -32 1153 0
1153 0 32 83 c18 45 36 87 40 92 4 6 15 33 25 60 10 28 26 68 36 90 10 22 45
108 79 190 33 83 69 170 80 195 11 25 56 135 101 245 45 110 87 214 94 230 8
17 30 71 50 120 20 50 41 99 46 110 4 11 54 130 110 265 55 135 107 259 114
277 l13 32 -64 30 c-66 31 -208 120 -260 162 -37 31 -162 156 -195 194 -73 88
-153 225 -202 347 -56 139 -80 240 -95 410 -5 55 -8 3679 -3 3794 l1 22 2003
-3 c1101 -2 2022 -6 2047 -8 25 -2 79 -8 120 -12 41 -4 84 -9 95 -11 11 -2 40
-7 65 -10 251 -31 593 -142 803 -261 33 -18 61 -33 63 -33 14 0 242 -157 313
-215 50 -40 175 -150 220 -191 25 -23 49 -40 53 -38 4 3 14 26 22 52 29 99
114 290 193 432 353 639 957 1179 1728 1544 115 55 145 69 190 87 11 4 40 17
65 27 115 50 511 184 610 207 69 15 110 29 110 36 0 4 -23 48 -51 96 -55 96
-217 419 -262 523 -16 36 -35 79 -42 95 -16 34 -70 175 -108 280 -40 113 -100
303 -117 375 -45 186 -56 232 -66 290 -4 19 -8 44 -10 55 -12 62 -34 196 -39
238 -3 26 -7 68 -10 95 -3 26 -7 61 -10 77 -8 56 -18 309 -18 455 -1 150 11
510 18 551 2 13 6 60 10 104 3 44 8 94 10 110 2 17 7 53 10 80 18 147 29 213
61 380 30 155 74 333 116 470 29 97 110 329 128 370 5 11 32 74 61 140 47 110
154 325 198 401 35 59 35 71 -1 78 -18 3 -85 23 -148 42 -392 123 -792 339
-1147 619 -264 209 -587 537 -768 780 -16 22 -32 42 -35 45 -13 12 -160 222
-210 300 -202 317 -338 596 -447 920 -20 58 -39 108 -42 113 -4 4 -20 -7 -37
-24z m-723 -2657 c295 -53 514 -159 686 -330 164 -164 273 -395 298 -632 9
-81 9 -3045 0 -3120 -28 -243 -98 -417 -223 -552 -156 -168 -362 -261 -703
-315 -61 -9 -5069 -15 -5070 -6 0 10 0 4876 0 4929 l1 41 2473 -2 c1855 -1
2488 -4 2538 -13z"/>
</g>
</svg>
